Coordinates
nRows=5
nColumns=24

# SIMM Motion File Header:
name Coordinates
datacolumns 24
datarows 5
otherdata 1
range 0.54932999999999998000 0.55332999999999999000
endheader
time	pelvis_tx	pelvis_ty	pelvis_tz	pelvis_tilt	pelvis_list	pelvis_rotation	hip_flexion_r	hip_adduction_r	hip_rotation_r	knee_angle_r	ankle_angle_r	subtalar_angle_r	mtp_angle_r	hip_flexion_l	hip_adduction_l	hip_rotation_l	knee_angle_l	ankle_angle_l	subtalar_angle_l	mtp_angle_l	lumbar_extension	lumbar_bending	lumbar_rotation
      0.54932999999999998000	      1.14339306826450770000	      0.76576339144494787000	     -0.21911820745249658000	     -6.48106678133579270000	      4.45175816695569630000	     -3.38220859288757710000	    -16.06787774434258500000	     -0.58479553541117513000	     -5.04936943320514690000	    -15.66252173054608600000	     -6.20071570330259900000	     -0.00000000000009365477	      0.00000000000011612890	     32.71027486150651200000	      4.99909849206261740000	      1.34709312722659090000	    -14.34065608362577700000	    -10.93243432999391900000	      0.00000000000002864703	     -0.00000000000015323200	      5.19820942062369080000	     -8.71240070862336320000	      8.14341925612056810000
      0.55032999999999999000	      1.14502588883739520000	      0.76588381241198311000	     -0.21925510071138282000	     -6.46081979323665490000	      4.48949792860602500000	     -3.31396995813958870000	    -16.01729698302161300000	     -0.65487882348116699000	     -5.08619360973437300000	    -15.89736784704205500000	     -6.73127628221998630000	     -0.00000000000009413583	      0.00000000000011677912	     32.69759562071190800000	      5.09812345438573720000	      1.48690616753096250000	    -14.57737951096095100000	    -10.83812989961976200000	      0.00000000000002886436	     -0.00000000000015405545	      5.19203518190303810000	     -8.77279004633014560000	      8.13080578791256240000
      0.55132999999999999000	      1.14665752868308470000	      0.76600758385081391000	     -0.21939153245073395000	     -6.43934104292670910000	      4.52706783976030990000	     -3.24627296708366720000	    -15.96598603116019400000	     -0.72529270424505254000	     -5.12266745617141070000	    -16.13405446096322700000	     -7.26746371417104960000	     -0.00000000000009462684	      0.00000000000011744157	     32.68211260787272500000	      5.19674784889550520000	      1.62502798437092230000	    -14.81171256271672300000	    -10.74042428770917600000	      0.00000000000002907201	     -0.00000000000015487096	      5.18418029642520220000	     -8.83286288903426890000	      8.11841590159909470000
      0.55232999999999999000	      1.14828562634718030000	      0.76614140670503139000	     -0.21952657963147959000	     -6.41416700598433560000	      4.56412819942646310000	     -3.18020090710394760000	    -15.91248450767743300000	     -0.79669836309061992000	     -5.15809031233188440000	    -16.37626256716001900000	     -7.82053170522315360000	     -0.00000000000009514770	      0.00000000000011814071	     32.65821827889976700000	      5.29417053996521590000	      1.75807613081764250000	    -15.03887448773428700000	    -10.63251513118930100000	      0.00000000000002925058	     -0.00000000000015566265	      5.17128347067581370000	     -8.89198624673041850000	      8.10669676096924970000
      0.55332999999999999000	      1.14991372401127620000	      0.76627522955924876000	     -0.21966162681222526000	     -6.38899296904196220000	      4.60118855909261710000	     -3.11412884712422850000	    -15.85898298419467300000	     -0.86810402193618741000	     -5.19351316849235900000	    -16.61847067335680700000	     -8.37359969627525840000	     -0.00000000000009566855	      0.00000000000011883985	     32.63432394992680200000	      5.39159323103492660000	      1.89112427726436260000	    -15.26603641275184800000	    -10.52460597466942700000	      0.00000000000002942915	     -0.00000000000015645433	      5.15838664492642440000	     -8.95110960442656990000	      8.09497762033940300000
